<svg width="175" height="10" viewBox="0 0 175 10" fill="none" xmlns="http://www.w3.org/2000/svg">
<path d="M0.00443226 9.08885V0.971796H2.74064C3.57437 0.971796 4.2307 1.14386 4.71852 1.488C5.20634 1.83213 5.45024 2.27726 5.45024 2.83087C5.45024 3.29096 5.3039 3.6912 5.00677 4.03159C4.70965 4.37198 4.30609 4.61138 3.78723 4.75726V4.77971C4.4347 4.84329 4.95356 5.04903 5.34382 5.40064C5.73407 5.74852 5.92919 6.20486 5.92919 6.76221C5.92919 7.45796 5.63207 8.01905 5.04225 8.44921C4.45244 8.87938 3.70741 9.09634 2.80717 9.09634H0L0.00443226 9.08885ZM1.13085 1.83213V4.45428H2.28387C2.90029 4.45428 3.38811 4.32709 3.73845 4.07647C4.08879 3.82585 4.27062 3.4705 4.27062 3.01415C4.27062 2.22489 3.65419 1.83213 2.42578 1.83213H1.13085ZM1.13085 5.30713V8.22852H2.66082C3.32159 8.22852 3.83602 8.0976 4.19966 7.83202C4.56331 7.56644 4.74513 7.20734 4.74513 6.74351C4.74513 5.78592 3.96906 5.30713 2.42135 5.30713H1.12641H1.13085Z" fill="#CACACA"/>
<path d="M15.3441 9.08885H10.2442V0.971796H15.1312V1.83213H11.375V4.53283H14.8518V5.38942H11.375V8.23227H15.3485V9.0926L15.3441 9.08885Z" fill="#CACACA"/>
<path d="M27.0783 9.08885H25.8321L24.8121 6.81458H20.7322L19.7743 9.08885H18.5193L22.209 0.971796H23.3753L27.0783 9.08885ZM24.4396 5.95799L22.9274 2.49795C22.8786 2.38573 22.8298 2.20245 22.7811 1.95557H22.7544C22.7101 2.18749 22.6569 2.36703 22.5992 2.49795L21.1047 5.95799H24.4396Z" fill="#CACACA"/>
<path d="M37.7171 5.80433C37.7171 8.08234 36.4976 9.22323 34.0585 9.22323C31.6194 9.22323 30.5551 8.12723 30.5551 5.93525V0.971505H31.6815V5.87167C31.6815 7.53623 32.5152 8.36663 34.1782 8.36663C35.8413 8.36663 36.5863 7.56241 36.5863 5.95396V0.967761H37.7127V5.8006L37.7171 5.80433Z" fill="#CACACA"/>
<path d="M48.1742 1.83213H45.3936V9.08885H44.2672V1.83213H41.4955V0.971796H48.1742V1.83213Z" fill="#CACACA"/>
<path d="M58.4982 0.971796L55.3229 6.08891V9.08885H54.1965V6.11135L51.1011 0.971796H52.3827L54.538 4.64131C54.5646 4.68619 54.6444 4.85451 54.773 5.1388H54.7952C54.8395 5.01162 54.9238 4.8433 55.048 4.64131L57.3008 0.971796H58.4937H58.4982Z" fill="#CACACA"/>
<path d="M74.8799 8.74825C74.1704 9.0662 73.2834 9.2233 72.2235 9.2233C70.8532 9.2233 69.7579 8.85298 68.933 8.10861C68.1081 7.36423 67.7001 6.38795 67.7001 5.18348C67.7001 3.8855 68.1614 2.83813 69.0882 2.03765C70.0151 1.23716 71.1903 0.836914 72.6094 0.836914C73.5229 0.836914 74.2768 0.949137 74.8799 1.16983V2.18353C74.1926 1.8581 73.4298 1.69725 72.5961 1.69725C71.4918 1.69725 70.596 2.00772 69.9086 2.6324C69.2213 3.25334 68.8798 4.08748 68.8798 5.12736C68.8798 6.16724 69.1991 6.90414 69.8421 7.49141C70.4851 8.07868 71.3277 8.37045 72.3699 8.37045C73.3367 8.37045 74.1748 8.1909 74.8799 7.82806V8.75199V8.74825Z" fill="#CACACA"/>
<path d="M82.9023 9.2233C81.5364 9.2233 80.4455 8.8455 79.625 8.08616C78.8046 7.32682 78.3922 6.33931 78.3922 5.12736C78.3922 3.8219 78.8091 2.77829 79.6472 2.00399C80.4854 1.22594 81.6207 0.836914 83.0619 0.836914C84.3923 0.836914 85.4611 1.21471 86.2727 1.97031C87.0842 2.72591 87.4922 3.71342 87.4922 4.92911C87.4922 6.25328 87.0754 7.30064 86.2461 8.0712C85.4123 8.84176 84.2992 9.22705 82.9023 9.22705V9.2233ZM82.9821 1.69351C81.971 1.69351 81.1506 2.00024 80.5209 2.61743C79.8911 3.23089 79.5763 4.03886 79.5763 5.04134C79.5763 6.04381 79.8823 6.84803 80.4987 7.454C81.1151 8.06372 81.9178 8.36671 82.9067 8.36671C83.9622 8.36671 84.7959 8.07495 85.4035 7.49516C86.011 6.91537 86.317 6.09991 86.317 5.05629C86.317 4.01267 86.0199 3.15608 85.4301 2.57255C84.8403 1.98902 84.0243 1.69351 82.9866 1.69351H82.9821Z" fill="#CACACA"/>
<path d="M95.1199 6.22253H91.4568V5.49389H95.1199V6.22253Z" fill="#CACACA"/>
<path d="M111.018 0.971796L108.3 9.08885H106.978L105 3.15629C104.916 2.90193 104.863 2.62888 104.845 2.32963H104.819C104.792 2.61017 104.734 2.87949 104.646 3.14507L102.654 9.08885H101.346L98.5257 0.971796H99.7675L101.812 7.19986C101.896 7.4617 101.949 7.73102 101.972 8.0153H102.007C102.029 7.81705 102.1 7.54399 102.215 7.19986L104.344 0.971796H105.426L107.466 7.24475C107.537 7.45796 107.59 7.71232 107.626 8.00408H107.652C107.67 7.80957 107.732 7.54773 107.834 7.2223L109.799 0.971796H111.018Z" fill="#CACACA"/>
<path d="M118.69 9.2233C117.324 9.2233 116.234 8.8455 115.413 8.08616C114.593 7.32682 114.18 6.33931 114.18 5.12736C114.18 3.8219 114.597 2.77829 115.435 2.00399C116.273 1.22594 117.409 0.836914 118.85 0.836914C120.18 0.836914 121.249 1.21471 122.061 1.97031C122.872 2.72591 123.28 3.71342 123.28 4.92911C123.28 6.25328 122.863 7.30064 122.034 8.0712C121.2 8.84176 120.087 9.22705 118.69 9.22705V9.2233ZM118.77 1.69351C117.759 1.69351 116.939 2.00024 116.309 2.61743C115.679 3.23463 115.364 4.03886 115.364 5.04134C115.364 6.04381 115.67 6.84803 116.287 7.454C116.903 8.06372 117.706 8.36671 118.69 8.36671C119.746 8.36671 120.58 8.07495 121.187 7.49516C121.795 6.91537 122.101 6.09991 122.101 5.05629C122.101 4.01267 121.804 3.15608 121.214 2.57255C120.624 1.98902 119.808 1.69351 118.77 1.69351Z" fill="#CACACA"/>
<path d="M134.438 9.08885H133.094L131.484 6.81458C131.338 6.60137 131.192 6.42182 131.054 6.27219C130.917 6.12257 130.775 6.00288 130.629 5.90562C130.482 5.81211 130.327 5.74103 130.158 5.69988C129.99 5.655 129.804 5.6363 129.591 5.6363H128.664V9.08885H127.538V0.971796H130.411C130.833 0.971796 131.218 1.01668 131.578 1.10645C131.932 1.19623 132.243 1.33089 132.504 1.51044C132.766 1.68999 132.97 1.91816 133.121 2.18748C133.267 2.45681 133.343 2.77476 133.343 3.1376C133.343 3.42188 133.294 3.67997 133.192 3.91563C133.09 4.15129 132.948 4.36076 132.762 4.54779C132.575 4.73482 132.354 4.89193 132.092 5.01911C131.83 5.15003 131.538 5.25102 131.21 5.32209V5.34454C131.369 5.40439 131.511 5.47545 131.631 5.55026C131.751 5.62882 131.861 5.71859 131.968 5.82333C132.074 5.92807 132.181 6.04776 132.287 6.18242C132.394 6.31708 132.509 6.47045 132.642 6.65L134.447 9.08885H134.438ZM128.668 1.83213V4.77596H130.198C130.482 4.77596 130.739 4.73856 130.979 4.66749C131.218 4.59642 131.427 4.49168 131.6 4.36076C131.773 4.2261 131.91 4.06151 132.008 3.867C132.105 3.67249 132.154 3.45554 132.154 3.2124C132.154 2.77849 131.986 2.4381 131.653 2.19496C131.32 1.95182 130.837 1.82839 130.207 1.82839H128.664L128.668 1.83213Z" fill="#CACACA"/>
<path d="M144.82 9.08856H143.25L139.533 5.37417C139.396 5.23576 139.312 5.13852 139.276 5.08989H139.25V9.08483H138.123V0.967761H139.25V4.78316H139.276C139.338 4.70087 139.423 4.60734 139.533 4.50635L143.13 0.967761H144.531L140.403 4.86171L144.82 9.08483V9.08856Z" fill="#CACACA"/>
<path d="M149.587 9.08885H148.46V0.971796H149.587V9.08885Z" fill="#CACACA"/>
<path d="M162.239 9.08885H160.855L155.902 2.61765C155.778 2.4568 155.676 2.28474 155.591 2.10894H155.552C155.587 2.281 155.605 2.65505 155.605 3.22362V9.08885H154.478V0.971796H155.942L160.762 7.33826C160.962 7.60384 161.095 7.78339 161.153 7.88065H161.179C161.135 7.64499 161.113 7.24849 161.113 6.6874V0.971796H162.239V9.08885Z" fill="#CACACA"/>
<path d="M174.319 8.53504C173.352 8.99513 172.279 9.22705 171.1 9.22705C169.725 9.22705 168.616 8.85299 167.769 8.10487C166.922 7.35676 166.496 6.36923 166.496 5.13858C166.496 3.90793 166.966 2.84935 167.907 2.04513C168.847 1.2409 170.04 0.836914 171.485 0.836914C172.532 0.836914 173.41 0.979065 174.124 1.26709V2.31819C173.344 1.90299 172.426 1.69725 171.361 1.69725C170.297 1.69725 169.401 2.01146 168.709 2.63613C168.022 3.26081 167.676 4.07252 167.676 5.07126C167.676 6.06999 167.995 6.90414 168.634 7.49141C169.273 8.07868 170.142 8.37045 171.237 8.37045C171.987 8.37045 172.638 8.24327 173.188 7.99265V5.71838H171.082V4.85804H174.315V8.53877L174.319 8.53504Z" fill="#CACACA"/>
</svg>
