<svg width="19" height="14" viewBox="0 0 19 14" fill="none" xmlns="http://www.w3.org/2000/svg">
<path d="M18.5306 1.28055L6.53055 13.2806C6.4609 13.3503 6.37818 13.4056 6.28713 13.4433C6.19609 13.4811 6.09849 13.5005 5.99993 13.5005C5.90137 13.5005 5.80377 13.4811 5.71272 13.4433C5.62167 13.4056 5.53896 13.3503 5.4693 13.2806L0.219304 8.03055C0.0785732 7.88982 -0.000488281 7.69895 -0.000488281 7.49993C-0.000488281 7.30091 0.0785732 7.11003 0.219304 6.9693C0.360034 6.82857 0.550906 6.74951 0.749929 6.74951C0.948952 6.74951 1.13982 6.82857 1.28055 6.9693L5.99993 11.6896L17.4693 0.219303C17.61 0.0785729 17.8009 -0.000488283 17.9999 -0.000488281C18.199 -0.00048828 18.3898 0.0785729 18.5306 0.219303C18.6713 0.360034 18.7503 0.550906 18.7503 0.749929C18.7503 0.948952 18.6713 1.13982 18.5306 1.28055Z" fill="white"/>
</svg>
