<svg width="232" height="28" viewBox="0 0 232 28" fill="none" xmlns="http://www.w3.org/2000/svg">
<path d="M33.0213 13.2319C33.1158 13.2668 33.2041 13.308 33.2923 13.3555L33.3018 13.2319H33.0213Z" fill="white"/>
<path d="M64.4446 26.7871C60.8673 17.858 57.2869 8.93219 53.7096 0.00316683L47.0089 17.4303C46.8387 17.8612 46.6402 18.3777 46.4006 18.9765C46.1642 19.5691 45.9342 20.2028 45.7167 20.8587C45.4992 21.5019 45.3164 22.1515 45.1746 22.7788C45.0264 23.4284 44.9792 23.9956 45.0264 24.4708L45.0832 24.7909C44.4497 24.3378 43.8823 23.8086 43.3844 23.2161C42.7572 22.4683 42.1615 21.6698 41.6099 20.8428C41.0457 20.0032 40.5005 19.1572 39.9836 18.3333C39.4572 17.4873 38.871 16.6952 38.2501 15.9664C37.6166 15.2376 36.9043 14.6008 36.1321 14.0779C35.7413 13.8118 35.3158 13.5868 34.8525 13.4062C36.7309 13.3904 38.332 13.064 39.6148 12.4271C40.926 11.7839 41.9282 10.9442 42.5933 9.94613C43.2614 8.9417 43.5955 7.85488 43.5955 6.70152C43.5955 5.54816 43.2614 4.455 42.5933 3.45374C41.9345 2.45881 40.9354 1.6223 39.6337 0.972748C38.3352 0.329529 36.6868 0 34.7296 0H27.2504C27.2504 9.2237 27.2504 18.4474 27.2472 27.6711H29.7939C29.8632 22.9151 29.9357 18.1622 30.005 13.4062H31.7259C32.5107 13.4062 33.1883 13.6629 33.7872 14.1952C34.4018 14.7465 35.0006 15.4594 35.5742 16.3118C36.151 17.18 36.7625 18.1527 37.3928 19.1984C38.0263 20.2535 38.7638 21.2959 39.5928 22.2972C40.1349 22.9531 41.0583 24.0114 42.5113 25.0475C43.2236 25.5545 45.2313 26.8885 48.1688 27.4715C49.1774 27.6711 50.0378 27.7313 50.6492 27.7503H55.1437L55.5187 26.2389C54.6016 26.5494 52.6916 27.1261 50.6555 27.1451C50.4822 27.1451 49.524 27.1641 48.3421 26.879C47.7212 26.73 47.2075 26.5241 46.8135 26.2769C46.4258 26.0329 46.1453 25.7509 45.972 25.4373C45.7923 25.1172 45.682 24.775 45.641 24.4328C45.619 23.9987 45.6694 23.4759 45.7986 22.8866C45.9247 22.294 46.1012 21.6667 46.3124 21.0266C46.5235 20.3739 46.7536 19.7402 46.9869 19.1477L47.5951 17.576L47.6897 17.3226H58.0906C59.3734 20.6781 60.6562 24.0336 61.9389 27.3891C62.7805 27.1863 63.622 26.9835 64.4604 26.7776L64.4446 26.7871ZM33.2923 13.3555C33.2041 13.308 33.1127 13.2668 33.0213 13.2319H33.3018L33.2923 13.3555ZM29.9956 12.8042V0.611531H34.7169C36.1226 0.611531 37.3077 0.915713 38.2343 1.5114C39.1641 2.11026 39.8638 2.86755 40.324 3.76426C40.7841 4.66413 41.0174 5.65589 41.0174 6.70469C41.0174 7.75348 40.781 8.74208 40.3082 9.64195C39.8355 10.5387 39.1358 11.2991 38.2186 11.9011C37.3014 12.5 36.1258 12.801 34.7201 12.801H29.9987L29.9956 12.8042ZM47.904 16.7237L52.9185 3.8308L57.8322 16.7237H47.904Z" fill="white"/>
<path d="M208.774 26.9772C205.093 17.988 201.409 8.99557 197.727 0.00634766L191.128 17.1641C190.961 17.5856 190.765 18.0957 190.532 18.6851C190.296 19.2776 190.065 19.9018 189.857 20.5387C189.646 21.1787 189.467 21.8188 189.322 22.4335C189.177 23.064 189.129 23.6249 189.183 24.1065L189.23 24.4012C188.713 24.0336 188.228 23.6185 187.784 23.1622C187.207 22.5697 186.662 21.9297 186.167 21.2548C185.669 20.583 185.202 19.8764 184.77 19.1508L184.729 19.0748C184.31 18.3714 183.897 17.6743 183.491 16.9899L179.759 10.6337L186.901 0.608378H186.167L176.232 14.5627V0.00634766H173.695C173.695 8.79596 173.695 17.5824 173.695 26.372H176.235V15.5799L178.12 12.9278L181.751 19.0494C182.195 19.8321 182.706 20.6115 183.264 21.3688C183.815 22.1325 184.462 22.8517 185.174 23.5076C185.395 23.7104 186.268 24.4899 187.604 25.2725C189.662 26.4766 191.506 26.9043 192.294 27.0628C193.277 27.256 194.119 27.3194 194.717 27.3352H199.143L199.499 25.8936C198.563 26.1914 196.697 26.7079 194.721 26.73C194.538 26.73 193.595 26.7586 192.439 26.4734C191.83 26.3245 191.326 26.1249 190.935 25.8809C190.557 25.6432 190.283 25.3644 190.113 25.057C189.939 24.7402 189.829 24.4043 189.785 24.0653C189.763 23.6375 189.813 23.1274 189.939 22.5507C190.065 21.9582 190.236 21.3435 190.444 20.7161C190.655 20.0792 190.875 19.4614 191.112 18.8688C191.345 18.2668 191.544 17.7535 191.711 17.3226L191.799 17.0754H202.03L205.566 26.3783C206.638 26.5811 207.709 26.7839 208.781 26.9835L208.774 26.9772ZM192.026 16.4607L196.962 3.78328L201.793 16.4607H192.026Z" fill="white"/>
<path d="M0 0.757324H3.45121V15.7732L17.6658 0.757324H19.56L9.93128 11.0837L21.7599 27.4335H17.8171L7.73449 13.4474L3.45121 18.0577V27.4335H0V0.757324Z" fill="white"/>
<path d="M71.2241 20.6878C71.2493 21.1188 71.3502 21.6479 71.5267 22.2689C71.7032 22.89 72.0436 23.4952 72.551 24.0782C73.0553 24.6612 73.7897 25.165 74.751 25.5833C75.7123 26.0015 76.9887 26.2106 78.5804 26.2106C80.5755 26.2106 82.1734 25.8304 83.3774 25.0668C84.5783 24.3032 85.1771 23.0991 85.1771 21.4451C85.1771 20.1238 84.7989 19.0687 84.0393 18.2829C83.2797 17.4971 82.3279 16.8285 81.1775 16.2835C80.0271 15.7385 78.7821 15.2474 77.4426 14.8165C76.1031 14.3855 74.8581 13.8627 73.7077 13.2544C72.5573 12.646 71.6055 11.8824 70.8459 10.9667C70.0863 10.0509 69.7081 8.84689 69.7081 7.34499C69.7081 6.20113 69.9413 5.18719 70.411 4.29682C70.8774 3.40646 71.5109 2.67135 72.3083 2.08517C73.1057 1.50215 74.0292 1.05538 75.0788 0.751196C76.1283 0.447014 77.2377 0.294922 78.4007 0.294922C79.5638 0.294922 80.5818 0.428005 81.6093 0.694165C82.6367 0.960324 83.5508 1.35639 84.3608 1.87604C85.1708 2.39568 85.8421 3.03256 86.3716 3.78035C86.9043 4.5313 87.2447 5.37414 87.396 6.3152H84.8146C84.6129 4.81647 83.9353 3.71698 82.7817 3.01989C81.6282 2.32281 80.2319 1.9711 78.5867 1.9711C77.6002 1.9711 76.7271 2.0915 75.9676 2.33231C75.208 2.57312 74.5682 2.88998 74.0481 3.28605C73.5312 3.67895 73.1373 4.14473 72.8725 4.67705C72.6078 5.20937 72.4754 5.78288 72.4754 6.39125C72.4754 7.4844 72.8662 8.35893 73.6542 9.02116C74.4389 9.68339 75.4223 10.2664 76.5979 10.7734C77.7767 11.2835 79.0563 11.7651 80.4368 12.2214C81.8173 12.6777 83.0969 13.2449 84.2725 13.9166C85.4513 14.5915 86.4315 15.428 87.2195 16.4324C88.0042 17.4369 88.3982 18.7265 88.3982 20.3013C88.3982 21.4451 88.1713 22.4876 87.7143 23.4255C87.2573 24.3665 86.6143 25.165 85.7759 25.8272C84.9407 26.4895 83.9353 26.9964 82.7565 27.3513C81.5777 27.7062 80.2571 27.8836 78.7884 27.8836C77.3197 27.8836 76.0148 27.7125 74.8014 27.3703C73.5848 27.0281 72.529 26.5465 71.6307 25.9223C70.7324 25.3013 70.0233 24.544 69.5032 23.6536C68.9832 22.7632 68.6995 21.7746 68.6491 20.6815H71.2273L71.2241 20.6878Z" fill="white"/>
<path d="M97.1539 19.5847L93.8161 27.4364H92.0732L103.294 0.760254H105.188L117.546 27.4364H113.868L110.227 19.5847H97.1507H97.1539ZM103.483 5.02832H103.331L97.8725 17.8705H109.433L103.483 5.02832Z" fill="white"/>
<path d="M125.167 0.757078V18.1715C125.167 18.6817 125.18 19.1886 125.205 19.6956C125.23 20.2057 125.318 20.7064 125.47 21.2007C125.621 21.695 125.848 22.1988 126.15 22.7057C126.453 23.2127 126.894 23.7229 127.477 24.2298C128.208 24.8921 128.987 25.3864 129.81 25.7159C130.629 26.0454 131.571 26.2102 132.634 26.2102C133.872 26.2102 135.06 26.0327 136.198 25.6779C137.336 25.323 138.36 24.6481 139.268 23.6595C139.772 23.1018 140.16 22.541 140.425 21.9833C140.69 21.4256 140.885 20.8585 141.011 20.2881C141.137 19.7178 141.213 19.1443 141.238 18.5739C141.263 18.0036 141.276 17.4364 141.276 16.8787V0.760245H142.943V18.1367C142.943 19.4833 142.729 20.7476 142.3 21.9294C141.871 23.1113 141.232 24.1474 140.387 25.0346C139.539 25.925 138.493 26.6221 137.241 27.1291C135.99 27.636 134.556 27.8927 132.939 27.8927C130.361 27.8927 128.328 27.5315 126.837 26.8059C125.347 26.0834 124.221 25.1804 123.465 24.0999C122.705 23.0194 122.226 21.8502 122.025 20.5923C121.823 19.3344 121.722 18.1842 121.722 17.1417V0.753906H125.17L125.167 0.757078Z" fill="white"/>
<path d="M149.956 20.6878C149.981 21.1188 150.082 21.6479 150.258 22.2689C150.435 22.89 150.775 23.4952 151.283 24.0782C151.787 24.6612 152.521 25.165 153.483 25.5833C154.444 26.0015 155.72 26.2106 157.312 26.2106C159.307 26.2106 160.905 25.8304 162.106 25.0668C163.307 24.3032 163.906 23.0991 163.906 21.4451C163.906 20.1238 163.527 19.0687 162.768 18.2829C162.008 17.4971 161.056 16.8285 159.906 16.2835C158.756 15.7385 157.511 15.2474 156.171 14.8165C154.832 14.3855 153.587 13.8627 152.436 13.2544C151.286 12.646 150.331 11.8824 149.574 10.9667C148.815 10.0509 148.437 8.84689 148.437 7.34499C148.437 6.20113 148.67 5.18719 149.139 4.29682C149.609 3.40646 150.239 2.67135 151.037 2.08517C151.834 1.50215 152.758 1.05538 153.807 0.751196C154.857 0.447014 155.966 0.294922 157.129 0.294922C158.292 0.294922 159.313 0.428005 160.338 0.694165C161.362 0.960324 162.279 1.35639 163.089 1.87604C163.899 2.39568 164.571 3.03256 165.1 3.78035C165.633 4.5313 165.973 5.37414 166.124 6.3152H163.543C163.341 4.81647 162.664 3.71698 161.51 3.01989C160.36 2.32281 158.96 1.9711 157.315 1.9711C156.329 1.9711 155.456 2.0915 154.696 2.33231C153.937 2.57312 153.297 2.88998 152.78 3.28605C152.26 3.67895 151.869 4.14473 151.604 4.67705C151.339 5.20937 151.207 5.78288 151.207 6.39125C151.207 7.4844 151.598 8.35893 152.386 9.02116C153.171 9.68339 154.154 10.2664 155.33 10.7734C156.508 11.2835 157.788 11.7651 159.168 12.2214C160.549 12.6777 161.829 13.2449 163.007 13.9166C164.186 14.5915 165.166 15.428 165.951 16.4324C166.736 17.4369 167.13 18.7265 167.13 20.3013C167.13 21.4451 166.903 22.4876 166.446 23.4255C165.989 24.3665 165.346 25.165 164.508 25.8272C163.672 26.4895 162.664 26.9964 161.488 27.3513C160.309 27.7062 158.989 27.8836 157.52 27.8836C156.051 27.8836 154.747 27.7125 153.533 27.3703C152.316 27.0281 151.261 26.5465 150.362 25.9223C149.464 25.3013 148.755 24.544 148.235 23.6536C147.715 22.7632 147.431 21.7746 147.381 20.6815H149.959L149.956 20.6878Z" fill="white"/>
<path d="M214.826 20.6878C214.851 21.1188 214.952 21.6479 215.128 22.2689C215.305 22.89 215.645 23.4952 216.153 24.0782C216.657 24.6612 217.391 25.165 218.353 25.5833C219.314 26.0015 220.591 26.2106 222.182 26.2106C224.177 26.2106 225.775 25.8304 226.976 25.0668C228.177 24.3032 228.776 23.0991 228.776 21.4451C228.776 20.1238 228.397 19.0687 227.638 18.2829C226.878 17.4971 225.926 16.8285 224.776 16.2835C223.626 15.7385 222.381 15.2474 221.041 14.8165C219.702 14.3855 218.457 13.8627 217.306 13.2544C216.156 12.646 215.201 11.8824 214.445 10.9667C213.685 10.0509 213.307 8.84689 213.307 7.34499C213.307 6.20113 213.54 5.18719 214.01 4.29682C214.479 3.40646 215.11 2.67135 215.907 2.08517C216.704 1.50215 217.628 1.05538 218.677 0.751196C219.727 0.447014 220.836 0.294922 221.999 0.294922C223.162 0.294922 224.184 0.428005 225.208 0.694165C226.232 0.960324 227.149 1.35639 227.959 1.87604C228.769 2.39568 229.441 3.03256 229.97 3.78035C230.503 4.5313 230.843 5.37414 230.995 6.3152H228.413C228.212 4.81647 227.534 3.71698 226.38 3.01989C225.23 2.32281 223.831 1.9711 222.185 1.9711C221.199 1.9711 220.326 2.0915 219.566 2.33231C218.807 2.57312 218.167 2.88998 217.65 3.28605C217.13 3.67895 216.739 4.14473 216.474 4.67705C216.21 5.20937 216.077 5.78288 216.077 6.39125C216.077 7.4844 216.468 8.35893 217.256 9.02116C218.041 9.68339 219.024 10.2664 220.2 10.7734C221.378 11.2835 222.658 11.7651 224.039 12.2214C225.419 12.6777 226.699 13.2449 227.877 13.9166C229.056 14.5915 230.036 15.428 230.821 16.4324C231.606 17.4369 232 18.7265 232 20.3013C232 21.4451 231.773 22.4876 231.316 23.4255C230.859 24.3665 230.216 25.165 229.378 25.8272C228.542 26.4895 227.534 26.9964 226.358 27.3513C225.18 27.7062 223.859 27.8836 222.39 27.8836C220.921 27.8836 219.617 27.7125 218.403 27.3703C217.187 27.0281 216.131 26.5465 215.232 25.9223C214.334 25.3013 213.625 24.544 213.105 23.6536C212.585 22.7632 212.301 21.7746 212.251 20.6815H214.829L214.826 20.6878Z" fill="white"/>
</svg>
