<svg width="32" height="32" viewBox="0 0 32 32" fill="none" xmlns="http://www.w3.org/2000/svg">
<path d="M12.3638 19.6362C13.2021 20.4699 13.8668 21.4617 14.3193 22.554C14.7718 23.6464 15.0032 24.8176 15 26C15 26.2652 14.8946 26.5195 14.7071 26.7071C14.5196 26.8946 14.2652 27 14 27C13.7348 27 13.4804 26.8946 13.2929 26.7071C13.1054 26.5195 13 26.2652 13 26C13 24.1434 12.2625 22.363 10.9497 21.0502C9.63699 19.7375 7.85652 19 6 19C5.73478 19 5.48043 18.8946 5.29289 18.7071C5.10536 18.5195 5 18.2652 5 18C5 17.7347 5.10536 17.4804 5.29289 17.2928C5.48043 17.1053 5.73478 17 6 17C7.18235 16.9968 8.35359 17.2282 9.44593 17.6807C10.5383 18.1332 11.53 18.7978 12.3638 19.6362ZM6 11C5.73478 11 5.48043 11.1053 5.29289 11.2928C5.10536 11.4804 5 11.7347 5 12C5 12.2652 5.10536 12.5195 5.29289 12.7071C5.48043 12.8946 5.73478 13 6 13C7.70719 13 9.39765 13.3362 10.9749 13.9895C12.5521 14.6428 13.9852 15.6004 15.1924 16.8076C16.3996 18.0147 17.3571 19.4478 18.0104 21.0251C18.6637 22.6023 19 24.2928 19 26C19 26.2652 19.1054 26.5195 19.2929 26.7071C19.4804 26.8946 19.7348 27 20 27C20.2652 27 20.5196 26.8946 20.7071 26.7071C20.8946 26.5195 21 26.2652 21 26C21 22.0217 19.4196 18.2064 16.6066 15.3934C13.7936 12.5803 9.97825 11 6 11ZM20.8488 11.1512C18.9034 9.19503 16.5893 7.64412 14.0405 6.58826C11.4917 5.5324 8.75883 4.99255 6 4.99995C5.73478 4.99995 5.48043 5.10531 5.29289 5.29285C5.10536 5.48038 5 5.73474 5 5.99995C5 6.26517 5.10536 6.51952 5.29289 6.70706C5.48043 6.8946 5.73478 6.99995 6 6.99995C8.49613 6.99311 10.9688 7.48144 13.2749 8.43667C15.5811 9.39191 17.6748 10.7951 19.435 12.565C21.2049 14.3251 22.608 16.4189 23.5633 18.725C24.5185 21.0311 25.0068 23.5038 25 26C25 26.2652 25.1054 26.5195 25.2929 26.7071C25.4804 26.8946 25.7348 27 26 27C26.2652 27 26.5196 26.8946 26.7071 26.7071C26.8946 26.5195 27 26.2652 27 26C27.0074 23.2411 26.4676 20.5082 25.4117 17.9594C24.3558 15.4107 22.8049 13.0966 20.8488 11.1512ZM6.5 24C6.20333 24 5.91332 24.0879 5.66665 24.2527C5.41997 24.4176 5.22771 24.6518 5.11418 24.9259C5.00065 25.2 4.97094 25.5016 5.02882 25.7926C5.0867 26.0836 5.22956 26.3508 5.43934 26.5606C5.64912 26.7704 5.91639 26.9133 6.20737 26.9711C6.49834 27.029 6.79994 26.9993 7.07403 26.8858C7.34812 26.7722 7.58238 26.58 7.74721 26.3333C7.91203 26.0866 8 25.7966 8 25.5C8 25.1021 7.84197 24.7206 7.56066 24.4393C7.27936 24.158 6.89783 24 6.5 24Z" fill="#CACACA"/>
</svg>
