<svg xmlns="http://www.w3.org/2000/svg">

   <!-- tiktok -->
	<symbol id="tiktok" viewBox="0 0 40 40">
      <g>
         <path d="M35 11.25C33.0115 11.2479 31.1051 10.4571 29.699 9.05102C28.2929 7.64494 27.5021 5.73849 27.5 3.75C27.5 3.41848 27.3683 3.10054 27.1339 2.86612C26.8995 2.6317 26.5815 2.5 26.25 2.5H20C19.6685 2.5 19.3505 2.6317 19.1161 2.86612C18.8817 3.10054 18.75 3.41848 18.75 3.75V24.375C18.7497 24.9342 18.5994 25.4831 18.3148 25.9644C18.0301 26.4457 17.6215 26.8418 17.1316 27.1114C16.6417 27.381 16.0884 27.5142 15.5295 27.4971C14.9705 27.48 14.4264 27.3133 13.9539 27.0142C13.4814 26.7152 13.0978 26.2949 12.843 25.797C12.5883 25.2992 12.4718 24.7422 12.5058 24.184C12.5397 23.6259 12.7227 23.087 13.0359 22.6237C13.349 22.1604 13.7807 21.7896 14.2859 21.55C14.4997 21.4486 14.6802 21.2886 14.8066 21.0886C14.933 20.8886 15.0001 20.6569 15 20.4203V13.75C15.0001 13.5673 14.9601 13.3868 14.8829 13.2212C14.8057 13.0556 14.6931 12.9089 14.553 12.7915C14.413 12.6741 14.2489 12.5889 14.0724 12.5418C13.8959 12.4946 13.7112 12.4868 13.5312 12.5188C7.95469 13.5125 3.75 18.6094 3.75 24.375C3.75 27.5244 5.00111 30.5449 7.22811 32.7719C9.4551 34.9989 12.4756 36.25 15.625 36.25C18.7744 36.25 21.7949 34.9989 24.0219 32.7719C26.2489 30.5449 27.5 27.5244 27.5 24.375V18.1703C29.8151 19.3782 32.3888 20.0061 35 20C35.3315 20 35.6495 19.8683 35.8839 19.6339C36.1183 19.3995 36.25 19.0815 36.25 18.75V12.5C36.25 12.1685 36.1183 11.8505 35.8839 11.6161C35.6495 11.3817 35.3315 11.25 35 11.25ZM33.75 17.4437C31.3072 17.2273 28.9682 16.3555 26.9797 14.9203C26.7928 14.7859 26.5724 14.7058 26.3429 14.6887C26.1133 14.6716 25.8835 14.7182 25.6787 14.8234C25.474 14.9286 25.3023 15.0883 25.1825 15.2849C25.0627 15.4815 24.9996 15.7073 25 15.9375V24.375C25 26.8614 24.0123 29.246 22.2541 31.0041C20.496 32.7623 18.1114 33.75 15.625 33.75C13.1386 33.75 10.754 32.7623 8.99587 31.0041C7.23772 29.246 6.25 26.8614 6.25 24.375C6.25 20.3281 8.85 16.6984 12.5 15.375V19.6984C11.692 20.2383 11.0376 20.9784 10.6006 21.8464C10.1637 22.7145 9.95908 23.6809 10.0068 24.6516C10.0545 25.6222 10.3528 26.5639 10.8728 27.385C11.3927 28.206 12.1165 28.8783 12.9736 29.3364C13.8307 29.7945 14.7918 30.0227 15.7633 29.9988C16.7348 29.9749 17.6836 29.6997 18.5171 29.2C19.3507 28.7004 20.0405 27.9933 20.5195 27.1477C20.9984 26.3021 21.2501 25.3468 21.25 24.375V5H25.0781C25.3592 7.20169 26.3633 9.24777 27.9328 10.8172C29.5022 12.3867 31.5483 13.3908 33.75 13.6719V17.4437Z" />
      </g>
   </symbol>

   <!-- instagram -->
	<symbol id="instagram" viewBox="0 0 40 40">
      <g>
         <path d="M20 12.5C18.5166 12.5 17.0666 12.9399 15.8332 13.764C14.5999 14.5881 13.6386 15.7594 13.0709 17.1299C12.5032 18.5003 12.3547 20.0083 12.6441 21.4632C12.9335 22.918 13.6478 24.2544 14.6967 25.3033C15.7456 26.3522 17.082 27.0665 18.5368 27.3559C19.9917 27.6453 21.4997 27.4968 22.8701 26.9291C24.2406 26.3614 25.4119 25.4001 26.236 24.1668C27.0601 22.9334 27.5 21.4834 27.5 20C27.4979 18.0115 26.7071 16.1051 25.301 14.699C23.8949 13.2929 21.9885 12.5021 20 12.5ZM20 25C19.0111 25 18.0444 24.7068 17.2221 24.1573C16.3999 23.6079 15.759 22.827 15.3806 21.9134C15.0022 20.9998 14.9031 19.9945 15.0961 19.0245C15.289 18.0546 15.7652 17.1637 16.4645 16.4645C17.1637 15.7652 18.0546 15.289 19.0245 15.0961C19.9945 14.9031 20.9998 15.0022 21.9134 15.3806C22.827 15.759 23.6079 16.3999 24.1573 17.2221C24.7068 18.0444 25 19.0111 25 20C25 21.3261 24.4732 22.5979 23.5355 23.5355C22.5979 24.4732 21.3261 25 20 25ZM27.5 3.75H12.5C10.1801 3.75248 7.95596 4.67515 6.31556 6.31556C4.67515 7.95596 3.75248 10.1801 3.75 12.5V27.5C3.75248 29.8199 4.67515 32.044 6.31556 33.6844C7.95596 35.3249 10.1801 36.2475 12.5 36.25H27.5C29.8199 36.2475 32.044 35.3249 33.6844 33.6844C35.3249 32.044 36.2475 29.8199 36.25 27.5V12.5C36.2475 10.1801 35.3249 7.95596 33.6844 6.31556C32.044 4.67515 29.8199 3.75248 27.5 3.75ZM33.75 27.5C33.75 29.1576 33.0915 30.7473 31.9194 31.9194C30.7473 33.0915 29.1576 33.75 27.5 33.75H12.5C10.8424 33.75 9.25269 33.0915 8.08058 31.9194C6.90848 30.7473 6.25 29.1576 6.25 27.5V12.5C6.25 10.8424 6.90848 9.25269 8.08058 8.08058C9.25269 6.90848 10.8424 6.25 12.5 6.25H27.5C29.1576 6.25 30.7473 6.90848 31.9194 8.08058C33.0915 9.25269 33.75 10.8424 33.75 12.5V27.5ZM30 11.875C30 12.2458 29.89 12.6084 29.684 12.9167C29.478 13.225 29.1851 13.4654 28.8425 13.6073C28.4999 13.7492 28.1229 13.7863 27.7592 13.714C27.3955 13.6416 27.0614 13.463 26.7992 13.2008C26.537 12.9386 26.3584 12.6045 26.286 12.2408C26.2137 11.8771 26.2508 11.5001 26.3927 11.1575C26.5346 10.8149 26.775 10.522 27.0833 10.316C27.3916 10.11 27.7542 10 28.125 10C28.6223 10 29.0992 10.1975 29.4508 10.5492C29.8025 10.9008 30 11.3777 30 11.875Z" />
      </g>
   </symbol>

   <!--  -->
	<symbol id="" viewBox="">
      <g>
         
      </g>
   </symbol>

   <!--  -->
	<symbol id="" viewBox="">
      <g>
         
      </g>
   </symbol>

   <!--  -->
	<symbol id="" viewBox="">
      <g>
         
      </g>
   </symbol>

   <!--  -->
	<symbol id="" viewBox="">
      <g>
         
      </g>
   </symbol>

</svg>